HIERARCHY
ROOT Hips
{
	OFFSET 0.000000 0.000000 0.000000
	CHANNELS 6 Xposition Yposition Zposition Zrotation Yrotation Xrotation 
	JOINT LowerBack
	{
		OFFSET 0.000000 0.000000 0.000000
		CHANNELS 3 Zrotation Yrotation Xrotation
		JOINT Spine
		{
			OFFSET 0.028270 2.035590 -0.193380
			CHANNELS 3 Zrotation Yrotation Xrotation
			JOINT Spine1
			{
				OFFSET 0.056720 2.048850 -0.042750
				CHANNELS 3 Zrotation Yrotation Xrotation
				JOINT Neck
				{
					OFFSET 0.000000 0.000000 0.000000
					CHANNELS 3 Zrotation Yrotation Xrotation
					JOINT Neck1
					{
						OFFSET -0.054170 1.746240 0.172020
						CHANNELS 3 Zrotation Yrotation Xrotation
						JOINT Head
						{
							OFFSET 0.104070 1.761360 -0.123970
							CHANNELS 3 Zrotation Yrotation Xrotation
							End Site
							{
								OFFSET 0.000000 0.000000 0.000000
							}
						}
					}
				}
				JOINT LeftShoulder
				{
					OFFSET 0.000000 0.000000 0.000000
					CHANNELS 3 Zrotation Yrotation Xrotation
					JOINT LeftArm
					{
						OFFSET 3.362410 1.200890 -0.311210
						CHANNELS 3 Zrotation Yrotation Xrotation
						JOINT LeftForeArm
						{
							OFFSET 4.983000 -0.000000 -0.000000
							CHANNELS 3 Zrotation Yrotation Xrotation
							JOINT LeftHand
							{
								OFFSET 3.483560 -0.000000 -0.000000
								CHANNELS 3 Zrotation Yrotation Xrotation
								JOINT LeftFingerBase
								{
									OFFSET 0.000000 0.000000 0.000000
									CHANNELS 3 Zrotation Yrotation Xrotation
									JOINT LeftHandIndex1
									{
										OFFSET 0.715260 -0.000000 -0.000000
										CHANNELS 3 Zrotation Yrotation Xrotation
										End Site
										{
											OFFSET 0.000000 0.000000 0.000000
										}
									}
								}
								JOINT LThumb
								{
									OFFSET 0.000000 0.000000 0.000000
									CHANNELS 3 Zrotation Yrotation Xrotation
									End Site
									{
										OFFSET 0.000000 0.000000 0.000000
									}
								}
							}
						}
					}
				}
				JOINT RightShoulder
				{
					OFFSET 0.000000 0.000000 0.000000
					CHANNELS 3 Zrotation Yrotation Xrotation
					JOINT RightArm
					{
						OFFSET -3.136600 1.374050 -0.404650
						CHANNELS 3 Zrotation Yrotation Xrotation
						JOINT RightForeArm
						{
							OFFSET -5.241900 -0.000000 -0.000000
							CHANNELS 3 Zrotation Yrotation Xrotation
							JOINT RightHand
							{
								OFFSET -3.444170 -0.000000 -0.000000
								CHANNELS 3 Zrotation Yrotation Xrotation
								JOINT RightFingerBase
								{
									OFFSET 0.000000 0.000000 0.000000
									CHANNELS 3 Zrotation Yrotation Xrotation
									JOINT RightHandIndex1
									{
										OFFSET -0.622530 -0.000000 -0.000000
										CHANNELS 3 Zrotation Yrotation Xrotation
										End Site
										{
											OFFSET 0.000000 0.000000 0.000000
										}
									}
								}
								JOINT RThumb
								{
									OFFSET 0.000000 0.000000 0.000000
									CHANNELS 3 Zrotation Yrotation Xrotation
									End Site
									{
										OFFSET 0.000000 0.000000 0.000000
									}
								}
							}
						}
					}
				}
			}
		}
	}
}
}
MOTION
Frames: 7
Frame Time: 0.008333
23.195699 14.411464 2.302640 -26.330476 -88.239803 69.190319 -8.178469 0.439305 5.896230 -2.153560 0.903483 -1.575878 -3.335286 0.916902 0.258570 7.874131 -11.804645 -8.610434 0.129070 0.067383 -0.806393 0.000000 0.000000 0.000000 6.487138 16.138205 2.742092 -66.926300 28.140441 20.880756 -179.946783 -89.736128 -179.959936 -14.326087 -1.076787 0.160489 0.235073 0.184673 0.000000 0.000000 0.000000 0.000000 0.000000 0.000000 0.000000 -3.020552 -4.816543 0.251522 56.911269 12.587927 17.942356 178.472178 69.709043 -179.961251 4.653539 4.758209 0.219389 -0.071429 -0.543268 -0.000000 0.000000 0.000000 0.000000 0.000000 0.000000 0.000000 
22.968480 14.395554 2.309171 0.876648 -88.638370 41.997786 -9.027403 0.401121 5.926186 -2.358576 0.844510 -1.577946 -3.414348 0.862658 0.201508 7.856575 -11.532575 -8.522717 0.052257 0.060004 -0.784178 0.000000 0.000000 0.000000 5.771044 15.850081 2.800659 -66.742022 26.712136 20.313673 0.014977 -89.578414 0.040476 -14.123643 -0.890768 0.134691 0.221777 0.184154 0.000000 0.000000 0.000000 0.000000 0.000000 0.000000 0.000000 -2.882848 -4.558114 0.208371 57.825449 12.113914 17.389784 178.517041 69.972187 -179.960665 4.765645 4.804749 0.226898 -0.078575 -0.545366 -0.000000 0.000000 0.000000 0.000000 0.000000 0.000000 0.000000 
22.748690 14.389442 2.305243 4.826474 -88.730092 38.014720 -9.401418 0.443742 5.996542 -2.478885 0.884856 -1.579181 -3.551880 0.906586 0.139078 7.897793 -11.237626 -8.426696 -0.037835 0.051540 -0.764085 0.000000 0.000000 0.000000 5.138988 15.628235 2.863620 -66.597287 25.112990 19.628767 -0.030699 -88.831824 0.040938 -13.882106 -0.674712 0.105698 0.207787 0.184172 0.000000 0.000000 0.000000 0.000000 0.000000 0.000000 0.000000 -2.622746 -4.222873 0.167501 58.902623 11.782941 16.825433 178.573096 70.432146 -179.960124 4.863731 4.832334 0.233107 -0.084950 -0.547416 -0.000000 0.000000 0.000000 0.000000 0.000000 0.000000 0.000000 
22.532235 14.387717 2.302430 7.908511 -88.819096 34.933602 -9.716556 0.470514 6.052380 -2.585182 0.909717 -1.583407 -3.694679 0.934780 0.075946 7.925736 -10.910658 -8.314877 -0.137354 0.042062 -0.739910 0.000000 0.000000 0.000000 4.440383 15.413648 2.922722 -66.450107 23.433609 18.840817 -0.077562 -88.085698 0.041345 -13.602302 -0.439187 0.075110 0.192974 0.184566 0.000000 0.000000 0.000000 0.000000 0.000000 0.000000 0.000000 -2.328388 -3.872104 0.120801 60.086439 11.494790 16.268356 178.642071 71.054390 -179.959673 4.961143 4.848277 0.238716 -0.091207 -0.548107 -0.000000 0.000000 0.000000 0.000000 0.000000 0.000000 0.000000 
22.319259 14.390357 2.300793 10.439181 -88.914939 32.437119 -9.983239 0.479784 6.097508 -2.679407 0.917323 -1.590266 -3.840087 0.945540 0.008455 7.941228 -10.551752 -8.188504 -0.245227 0.031710 -0.712086 0.000000 0.000000 0.000000 3.688840 15.192093 2.978005 -66.318856 21.705473 17.926885 -0.124660 -87.354822 0.041697 -13.294493 -0.191871 0.044425 0.177769 0.185466 0.000000 0.000000 0.000000 0.000000 0.000000 0.000000 0.000000 -2.001991 -3.505837 0.070742 61.367127 11.240676 15.712293 178.722371 71.829807 -179.959251 5.067476 4.864040 0.244824 -0.097645 -0.547782 -0.000000 0.000000 0.000000 0.000000 0.000000 0.000000 0.000000 
22.110001 14.397368 2.300691 12.258782 -88.998119 30.678576 -10.189819 0.467822 6.143337 -2.757916 0.903838 -1.595575 -3.983561 0.935204 -0.060270 7.942826 -10.172518 -8.054236 -0.359096 0.020835 -0.682782 0.000000 0.000000 0.000000 2.912738 14.970677 3.029884 -66.234169 19.917219 16.894008 -0.173059 -86.620116 0.042013 -12.964270 0.053717 0.015241 0.162381 0.187160 0.000000 0.000000 0.000000 0.000000 0.000000 0.000000 0.000000 -1.649721 -3.139063 0.017780 62.728562 11.021422 15.149962 178.813285 72.754263 -179.958829 5.188001 4.893149 0.252131 -0.104487 -0.546715 -0.000000 0.000000 0.000000 0.000000 0.000000 0.000000 0.000000 
21.904732 14.408676 2.302222 13.389184 -89.063237 29.629333 -10.335828 0.433380 6.197849 -2.820316 0.867729 -1.598355 -4.122872 0.902307 -0.134715 7.930828 -9.772060 -7.911026 -0.477996 0.009511 -0.651715 0.000000 0.000000 0.000000 2.128280 14.729781 3.077476 -66.212393 18.098254 15.733540 -0.221768 -85.891850 0.042278 -12.608973 0.292503 -0.011443 0.147065 0.189773 -0.000000 0.000000 0.000000 0.000000 0.000000 0.000000 0.000000 -1.275545 -2.771019 -0.035487 64.155681 10.821598 14.569833 178.913255 73.815938 -179.958420 5.323424 4.942316 0.261132 -0.111823 -0.545099 -0.000000 0.000000 0.000000 0.000000 0.000000 0.000000 0.000000 
